PathFileType	4	(X/Y/Z)	/Users/itak/Documents/Research/Walk-IL/dataset/trc/00041_00004.trc
DataRate	CameraRate	NumFrames	NumMarkers	Units	OrigDataRate	OrigDataStartFrame	OrigNumFrames
100.000000	100.000000	4	53	mm	100.000000	138	555
Frame#	Time	RPSI			LPSI			L3			STRN			T10			C7			CLAV			RBAK			LBAK			LSHO			LUPA			LAEL			LAOL			LWTS			LWPS			LFRA			LIFD			LHPS			LHTS			RSHO			RUPA			RAEL			RAOL			RWTS			RWPS			RFRA			RIFD			RHTS			RHPS			RBHD			LFHD			RFHD			LBHD			LHIP			RHIP			RASI			LASI			LKNE			LTHI			LANK			LTIP			LTOE			LMT1			LMT5			LHEE			RKNE			RTHI			RTIP			RTOE			RMT1			RMT5			RANK			RHEE			
		X1	Y1	Z1	X2	Y2	Z2	X3	Y3	Z3	X4	Y4	Z4	X5	Y5	Z5	X6	Y6	Z6	X7	Y7	Z7	X8	Y8	Z8	X9	Y9	Z9	X10	Y10	Z10	X11	Y11	Z11	X12	Y12	Z12	X13	Y13	Z13	X14	Y14	Z14	X15	Y15	Z15	X16	Y16	Z16	X17	Y17	Z17	X18	Y18	Z18	X19	Y19	Z19	X20	Y20	Z20	X21	Y21	Z21	X22	Y22	Z22	X23	Y23	Z23	X24	Y24	Z24	X25	Y25	Z25	X26	Y26	Z26	X27	Y27	Z27	X28	Y28	Z28	X29	Y29	Z29	X30	Y30	Z30	X31	Y31	Z31	X32	Y32	Z32	X33	Y33	Z33	X34	Y34	Z34	X35	Y35	Z35	X36	Y36	Z36	X37	Y37	Z37	X38	Y38	Z38	X39	Y39	Z39	X40	Y40	Z40	X41	Y41	Z41	X42	Y42	Z42	X43	Y43	Z43	X44	Y44	Z44	X45	Y45	Z45	X46	Y46	Z46	X47	Y47	Z47	X48	Y48	Z48	X49	Y49	Z49	X50	Y50	Z50	X51	Y51	Z51	X52	Y52	Z52	X53	Y53	Z53	

139	1.38	-1221.297241210938	1078.762084960938	145.741943359375	-1221.568603515625	1066.887084960938	-19.15001106262207	-1226.929565429688	1127.189697265625	52.3919677734375	-1013.945190429688	1326.468017578125	64.41348266601562	-1259.044921875	1267.662475585938	43.82096862792969	-1220.417114257812	1537.214233398438	30.52225685119629	-1058.452392578125	1451.670288085938	53.78909683227539	-1271.375122070312	1399.116455078125	108.6378860473633	-1226.8115234375	1492.8017578125	-67.77889251708984	-1117.496337890625	1503.117553710938	-132.3814239501953	-1135.537353515625	1373.276123046875	-208.5117492675781	-1126.250122070312	1153.91162109375	-224.7524566650391	-1190.197265625	1143.919555664062	-140.6339874267578	-1047.243041992188	901.9603271484375	-153.1616821289062	-1119.00634765625	887.8202514648438	-203.4363403320312	-1113.043701171875	1038.177001953125	-225.8929901123047	-1026.687622070312	717.9327392578125	-126.3915939331055	-1086.532592773438	797.4328002929688	-196.6939849853516	-1026.095336914062	808.0313110351562	-161.4588470458984	-1161.199462890625	1528.741943359375	214.0304412841797	-1179.180297851562	1458.339477539062	284.3005065917969	-1204.414794921875	1187.738891601562	305.6085510253906	-1193.176025390625	1160.823486328125	209.3365173339844	-1068.039428710938	932.355712890625	290.0398254394531	-1137.73828125	915.2382202148438	346.9944763183594	-1191.420654296875	1112.223999023438	322.1460266113281	-1046.1279296875	745.8191528320312	277.3923034667969	-1033.01318359375	823.3275756835938	307.1330871582031	-1093.761840820312	816.5462646484375	350.3623352050781	-1175.96728515625	1720.609008789062	-32.21884918212891	-1019.983215332031	1751.761596679688	117.5052795410156	-1005.917358398438	1754.225708007812	20.27307891845703	-1191.294921875	1715.23388671875	111.286994934082	-1123.156372070312	960.489990234375	-123.8419036865234	-1111.326782226562	964.0514526367188	248.2013244628906	-1007.249694824219	998.1854248046875	177.3300476074219	-1008.396240234375	1009.399230957031	-57.6219482421875	-1096.6884765625	516.1558227539062	-61.73749923706055	-1113.839965820312	652.3921508789062	-100.9662475585938	-1197.446655273438	41.79835510253906	-51.02311706542969	-1180.112670898438	287.8006591796875	-76.38968658447266	-981.2528076171875	41.30244827270508	22.47067642211914	-1041.276733398438	50.77518081665039	36.97031021118164	-1073.300415039062	41.27938079833984	-65.42964935302734	-1269.974609375	50.11143112182617	-1.184852600097656	-1110.638427734375	526.2315673828125	203.1398620605469	-1091.351806640625	795.7398681640625	248.0326080322266	-1138.394897460938	405.9225463867188	202.4398498535156	-991.1312866210938	45.79133987426758	142.0517730712891	-1054.37939453125	50.90705108642578	111.4326934814453	-1074.917236328125	45.17956161499023	205.4215545654297	-1225.101440429688	47.37907409667969	180.2348937988281	-1279.00390625	47.97831344604492	133.4864349365234	
140	1.39	-1221.18701171875	1078.792114257812	145.6241302490234	-1221.395263671875	1066.900634765625	-19.28697967529297	-1226.750732421875	1127.214599609375	52.27240753173828	-1013.802490234375	1326.443725585938	64.37871551513672	-1258.845825195312	1267.672973632812	43.65524291992188	-1220.0986328125	1537.185913085938	30.43880844116211	-1058.201416015625	1451.616455078125	53.74633026123047	-1271.214477539062	1399.13037109375	108.4357757568359	-1226.50048828125	1492.799682617188	-67.99820709228516	-1117.153686523438	1503.102172851562	-132.4811248779297	-1135.2041015625	1373.256103515625	-208.6605834960938	-1125.901000976562	1153.923095703125	-224.981689453125	-1189.864624023438	1143.882934570312	-140.8981018066406	-1046.806884765625	901.9854736328125	-153.4304809570312	-1118.569580078125	887.82666015625	-203.7585754394531	-1112.638427734375	1038.193603515625	-226.1630706787109	-1026.25048828125	717.8735961914062	-126.8348159790039	-1086.10400390625	797.4664916992188	-197.0706024169922	-1025.716552734375	808.0839233398438	-161.8373870849609	-1161.03125	1528.7177734375	213.8786163330078	-1179.076171875	1458.341796875	284.1594848632812	-1204.400146484375	1187.73291015625	305.394775390625	-1193.0927734375	1160.8466796875	209.1224975585938	-1068.10595703125	932.2933959960938	289.8074340820312	-1137.880249023438	915.208740234375	346.6704406738281	-1191.468139648438	1112.214721679688	321.8733825683594	-1046.385864257812	745.7871704101562	277.0557556152344	-1033.112670898438	823.31494140625	306.8370666503906	-1093.887084960938	816.4596557617188	350.0525512695312	-1175.853637695312	1720.498046875	-32.4354133605957	-1019.936096191406	1751.8828125	117.349609375	-1005.78515625	1754.318969726562	20.11990928649902	-1191.240600585938	1715.194580078125	111.1326217651367	-1122.933349609375	960.4857177734375	-123.8869781494141	-1111.330322265625	964.0496826171875	248.1728973388672	-1007.2021484375	998.122802734375	177.2949829101562	-1008.151916503906	1009.303466796875	-57.63325881958008	-1096.558471679688	516.12939453125	-61.72550964355469	-1113.653930664062	652.3629760742188	-100.9925155639648	-1197.44384765625	41.79825210571289	-51.02610015869141	-1179.982421875	287.7763671875	-76.38318634033203	-981.257568359375	41.30290985107422	22.47665596008301	-1041.28369140625	50.77202987670898	36.99163818359375	-1073.304809570312	41.29165267944336	-65.41683197021484	-1269.974975585938	50.11911010742188	-1.186594605445862	-1110.64697265625	526.21875	203.1175537109375	-1091.54833984375	795.6876831054688	248.2106170654297	-1138.407836914062	405.9009399414062	202.4275665283203	-991.1490478515625	45.78005599975586	142.0590515136719	-1054.378295898438	50.90642929077148	111.4352722167969	-1074.915893554688	45.17776489257812	205.423095703125	-1225.103637695312	47.37017059326172	180.2406158447266	-1279.010375976562	47.97083282470703	133.4856567382812	
141	1.4	-1221.079956054688	1078.820434570312	145.5031280517578	-1221.21875	1066.914672851562	-19.42295837402344	-1226.554565429688	1127.23974609375	52.15979766845703	-1013.650390625	1326.420166015625	64.33151245117188	-1258.636108398438	1267.680908203125	43.49323654174805	-1219.76904296875	1537.145141601562	30.33947944641113	-1057.95556640625	1451.566162109375	53.70595169067383	-1271.051391601562	1399.139526367188	108.2366409301758	-1226.18603515625	1492.790405273438	-68.21157073974609	-1116.803344726562	1503.08642578125	-132.5833892822266	-1134.8740234375	1373.233154296875	-208.8100280761719	-1125.536499023438	1153.93359375	-225.2084808349609	-1189.497436523438	1143.840576171875	-141.1503601074219	-1046.362670898438	902.0132446289062	-153.6935424804688	-1118.100830078125	887.8295288085938	-204.0714263916016	-1112.218139648438	1038.208862304688	-226.4299926757812	-1025.765502929688	717.863037109375	-127.2482604980469	-1085.64404296875	797.5013427734375	-197.4409790039062	-1025.2890625	808.14794921875	-162.2093963623047	-1160.852416992188	1528.692260742188	213.7289886474609	-1178.954345703125	1458.338989257812	284.0224304199219	-1204.380249023438	1187.7255859375	305.1776733398438	-1192.991088867188	1160.865356445312	208.9168243408203	-1068.16259765625	932.2273559570312	289.5790710449219	-1138.009155273438	915.1793212890625	346.3518371582031	-1191.512573242188	1112.206420898438	321.5989074707031	-1046.65185546875	745.7178955078125	276.7156982421875	-1033.217163085938	823.3003540039062	306.5427856445312	-1093.985473632812	816.35107421875	349.7656555175781	-1175.767211914062	1720.365478515625	-32.63840484619141	-1019.890930175781	1752.032104492188	117.1646575927734	-1005.672607421875	1754.425048828125	19.94135284423828	-1191.1953125	1715.138549804688	110.9938278198242	-1122.695434570312	960.481689453125	-123.9186248779297	-1111.316772460938	964.040771484375	248.1497192382812	-1007.1474609375	998.0601806640625	177.2630004882812	-1007.891418457031	1009.21826171875	-57.63872146606445	-1096.421752929688	516.1036376953125	-61.70796203613281	-1113.467651367188	652.3394775390625	-101.0144805908203	-1197.443115234375	41.79924392700195	-51.02980804443359	-1179.846923828125	287.7530517578125	-76.37620544433594	-981.2619018554688	41.30477523803711	22.48280906677246	-1041.292602539062	50.76969528198242	37.01645278930664	-1073.3115234375	41.30570602416992	-65.40386962890625	-1269.975830078125	50.12609100341797	-1.188591718673706	-1110.65576171875	526.2018432617188	203.0948028564453	-1091.732055664062	795.6294555664062	248.3865051269531	-1138.419189453125	405.8805236816406	202.4169464111328	-991.1668090820312	45.77146911621094	142.0638580322266	-1054.379150390625	50.90631484985352	111.4404754638672	-1074.914794921875	45.17660903930664	205.4243774414062	-1225.107543945312	47.35947418212891	180.2483520507812	-1279.020141601562	47.96274948120117	133.4854736328125	
142	1.41	-1220.977172851562	1078.846557617188	145.3780364990234	-1221.040649414062	1066.92919921875	-19.55683708190918	-1226.341552734375	1127.264770507812	52.05160522460938	-1013.478210449219	1326.397827148438	64.26875305175781	-1258.412963867188	1267.68701171875	43.33417129516602	-1219.430908203125	1537.09619140625	30.22085189819336	-1057.71240234375	1451.520263671875	53.6624870300293	-1270.881469726562	1399.145385742188	108.0402374267578	-1225.876098632812	1492.773803710938	-68.40753173828125	-1116.447509765625	1503.0703125	-132.6883544921875	-1134.541015625	1373.20947265625	-208.9586639404297	-1125.155151367188	1153.943481445312	-225.4310302734375	-1189.09326171875	1143.793334960938	-141.3879699707031	-1045.906982421875	902.0449829101562	-153.9515533447266	-1117.595458984375	887.8287963867188	-204.3720092773438	-1111.783569335938	1038.222534179688	-226.6926574707031	-1025.23095703125	717.9014282226562	-127.6276550292969	-1085.159057617188	797.5365600585938	-197.8039855957031	-1024.809326171875	808.2146606445312	-162.5701751708984	-1160.662963867188	1528.66748046875	213.5815887451172	-1178.81201171875	1458.331909179688	283.8894958496094	-1204.349365234375	1187.717407226562	304.9568176269531	-1192.869506835938	1160.879516601562	208.7185974121094	-1068.21142578125	932.1588745117188	289.3541870117188	-1138.117431640625	915.1488647460938	346.044921875	-1191.550537109375	1112.1982421875	321.323486328125	-1046.9150390625	745.6151123046875	276.3812255859375	-1033.349731445312	823.2669067382812	306.2494201660156	-1094.060546875	816.2244873046875	349.5065002441406	-1175.709350585938	1720.213134765625	-32.82332229614258	-1019.847229003906	1752.2109375	116.9484710693359	-1005.589172363281	1754.545043945312	19.73808860778809	-1191.156860351562	1715.0673828125	110.8690032958984	-1122.447998046875	960.475830078125	-123.9365997314453	-1111.29248046875	964.024169921875	248.1298828125	-1007.084655761719	997.9976806640625	177.2328948974609	-1007.623779296875	1009.142822265625	-57.6380500793457	-1096.279418945312	516.0783081054688	-61.68678665161133	-1113.281860351562	652.3209838867188	-101.0310363769531	-1197.443603515625	41.80077743530273	-51.03382873535156	-1179.708984375	287.7315368652344	-76.36983489990234	-981.265625	41.30808258056641	22.48954582214355	-1041.302856445312	50.76902389526367	37.04361343383789	-1073.319946289062	41.32093811035156	-65.39091491699219	-1269.977416992188	50.13199234008789	-1.190795540809631	-1110.665161132812	526.1814575195312	203.0719146728516	-1091.881469726562	795.573974609375	248.5372467041016	-1138.430541992188	405.8627624511719	202.4079132080078	-991.1808471679688	45.76788711547852	142.0646209716797	-1054.382202148438	50.90650939941406	111.4468688964844	-1074.913940429688	45.17610168457031	205.4257354736328	-1225.113159179688	47.34678649902344	180.2577819824219	-1279.031372070312	47.95317077636719	133.48681640625	
